<svg xmlns="http://www.w3.org/2000/svg" viewBox="0 0 145.2 145.2"><defs><style>.cls-1{fill:#fff;}.cls-2{fill:#002350;}</style></defs><title>アセット 1</title><g id="レイヤー_2" data-name="レイヤー 2"><g id="レイヤー_1-2" data-name="レイヤー 1"><path class="cls-1" d="M145.2,72.6C88,81.11,81.11,88,72.6,145.2,64.09,88,57.2,81.11,0,72.6,57.2,64.09,64.09,57.2,72.6,0,81.11,57.2,88,64.09,145.2,72.6Z"/><path class="cls-2" d="M48.11,66.08h2.72L54.91,77.6H52.3l-.76-2.37H47.3l-.78,2.37H44ZM48,73.25H50.9l-1.45-4.53Z"/><path class="cls-2" d="M65,67.31a2.93,2.93,0,0,1,.53,1.76,2.56,2.56,0,0,1-.53,1.7,2.75,2.75,0,0,1-.88.66,2.57,2.57,0,0,1,1.33,1,3,3,0,0,1,.45,1.69A3.37,3.37,0,0,1,65.35,76a3.17,3.17,0,0,1-2.12,1.48,8,8,0,0,1-1.63.16H56.41V66.08H62A3.53,3.53,0,0,1,65,67.31Zm-6.25.77v2.54h2.8a2.31,2.31,0,0,0,1.22-.29,1.09,1.09,0,0,0,.47-1,1,1,0,0,0-.62-1.06,4.34,4.34,0,0,0-1.36-.18Zm0,4.45V75.6h2.8a2.71,2.71,0,0,0,1.17-.2A1.45,1.45,0,0,0,63.43,74a1.24,1.24,0,0,0-.73-1.23,2.92,2.92,0,0,0-1.15-.2Z"/><path class="cls-2" d="M76.8,76.58a6,6,0,0,1-7.55,0,6.21,6.21,0,0,1-1.75-4.75,6.09,6.09,0,0,1,1.75-4.75,6,6,0,0,1,7.55,0,6.11,6.11,0,0,1,1.74,4.75A6.23,6.23,0,0,1,76.8,76.58Zm-1.5-1.75a5.77,5.77,0,0,0,0-6A2.75,2.75,0,0,0,73,67.77a2.78,2.78,0,0,0-2.28,1.05,5.71,5.71,0,0,0,0,6A2.78,2.78,0,0,0,73,75.88,2.75,2.75,0,0,0,75.29,74.83Z"/><path class="cls-2" d="M80.37,66.08h2.45v7.07a4,4,0,0,0,.28,1.73,2.34,2.34,0,0,0,3.79,0,4,4,0,0,0,.28-1.73V66.08h2.45v7.08A5.94,5.94,0,0,1,89,76Q88,77.9,85,77.9T80.94,76a5.93,5.93,0,0,1-.57-2.86Z"/><path class="cls-2" d="M100.3,66.08v2H96.85V77.6H94.43V68.12H91v-2Z"/></g></g></svg>