<?xml version="1.0" encoding="utf-8"?>
<!-- Generator: Adobe Illustrator 20.0.0, SVG Export Plug-In . SVG Version: 6.00 Build 0)  -->
<svg version="1.1" id="レイヤー_1" xmlns="http://www.w3.org/2000/svg" xmlns:xlink="http://www.w3.org/1999/xlink" x="0px"
	 y="0px" viewBox="0 0 214.2 99" style="enable-background:new 0 0 214.2 99;" xml:space="preserve">
<style type="text/css">
	.st0{fill:#FFFFFF;}
</style>
<g>
	<g>
		<path class="st0" d="M0,26.7h11.3c4.3,0,7.6,1,9.9,2.9c2.3,1.9,3.4,4.6,3.4,7.9c0,3.4-1.2,6.1-3.5,8c-2.3,2-5.7,3-10.2,3H3.2v19.1
			H0V26.7z M3.2,29.3v16.5h7.6c3.4,0,6-0.7,7.8-2.2c1.8-1.4,2.7-3.5,2.7-6.1c0-2.5-0.9-4.5-2.6-6c-1.7-1.5-4.2-2.2-7.5-2.2H3.2z"/>
		<path class="st0" d="M48.2,26.1c6.1,0,11.2,2,15.4,6.1c4.2,4.1,6.3,9,6.3,14.9c0,5.8-2.1,10.8-6.3,14.9c-4.2,4.1-9.3,6.1-15.4,6.1
			c-6,0-11.1-2-15.3-6.1s-6.3-9-6.3-14.9c0-5.9,2.1-10.8,6.3-14.9S42.1,26.1,48.2,26.1z M48.3,65.2c5.1,0,9.4-1.7,12.9-5.2
			c3.5-3.5,5.3-7.8,5.3-12.8c0-5.1-1.8-9.4-5.3-12.8c-3.5-3.5-7.8-5.2-12.9-5.2c-5.1,0-9.4,1.7-13,5.2S30,42.1,30,47.1
			c0,5.1,1.8,9.3,5.3,12.8S43.2,65.2,48.3,65.2z"/>
		<path class="st0" d="M77.8,0v64.9H98v2.6H74.6V0H77.8z"/>
		<path class="st0" d="M121.9,26.4l18.9,41.2h-3.3l-6.5-14.2h-20l-6.5,14.2h-3.3l18.9-41.2H121.9z M129.9,50.8L121,31.5l-8.8,19.3
			H129.9z"/>
		<path class="st0" d="M144.3,26.7h10.5c4.4,0,7.8,1,10.1,2.9c2.3,1.9,3.5,4.5,3.5,7.7c0,4.7-2.6,8-7.8,10c1.3,0.6,3.2,2.7,5.4,6.2
			l9.3,14.2h-3.7l-7.1-11.2c-2.4-3.8-4.2-6.1-5.6-7S155.6,48,153,48h-5.5v19.6h-3.2V26.7z M147.5,29.3v16h6.8c3.5,0,6.1-0.7,7.9-2.1
			c1.8-1.4,2.7-3.4,2.7-5.9c0-2.5-0.9-4.5-2.8-5.9c-1.9-1.4-4.5-2.1-8-2.1H147.5z"/>
		<path class="st0" d="M183.3,26.7v71.4h-3.2V26.7H183.3z"/>
		<path class="st0" d="M212.5,28.7v3.5c-3.6-2.1-6.6-3.1-9.2-3.1c-2.5,0-4.5,0.7-6.2,2.2c-1.7,1.5-2.5,3.3-2.5,5.6
			c0,1.6,0.5,3,1.5,4.3c1,1.3,3,2.5,6.1,3.7s5.4,2.1,6.8,2.9c1.4,0.8,2.6,1.9,3.6,3.4c1,1.5,1.5,3.4,1.5,5.8c0,3.1-1.2,5.8-3.5,8
			c-2.3,2.2-5.1,3.3-8.4,3.3c-3.4,0-6.9-1.2-10.5-3.6v-3.7c4,2.9,7.4,4.4,10.3,4.4c2.4,0,4.5-0.8,6.1-2.4s2.5-3.5,2.5-5.8
			c0-1.7-0.5-3.3-1.6-4.7c-1-1.4-3.1-2.7-6.3-3.9c-3.2-1.2-5.4-2.2-6.8-2.9c-1.4-0.7-2.5-1.8-3.5-3.2c-0.9-1.4-1.4-3.1-1.4-5.3
			c0-3,1.2-5.6,3.5-7.7c2.3-2.1,5.1-3.2,8.3-3.2C206.3,26.1,209.4,27,212.5,28.7z"/>
	</g>
	<g>
		<path class="st0" d="M84.1,76.2h3.2l-9.1,22.6h-0.7l-7.4-18.3l-7.4,18.3H62l-9.1-22.6h3.2l6.2,15.5l6.2-15.5h3l6.3,15.5L84.1,76.2
			z"/>
		<path class="st0" d="M99.2,75.9c3.5,0,6.4,1.1,8.7,3.3s3.5,5,3.5,8.3s-1.2,6.1-3.5,8.2c-2.3,2.2-5.3,3.3-8.8,3.3
			c-3.4,0-6.2-1.1-8.5-3.3c-2.3-2.2-3.4-4.9-3.4-8.2c0-3.4,1.1-6.1,3.4-8.3S95.7,75.9,99.2,75.9z M99.3,79c-2.6,0-4.7,0.8-6.4,2.4
			s-2.5,3.7-2.5,6.2c0,2.4,0.8,4.4,2.5,6.1s3.7,2.4,6.2,2.4c2.5,0,4.6-0.8,6.3-2.5s2.5-3.7,2.5-6.1c0-2.4-0.8-4.4-2.5-6
			C103.8,79.8,101.8,79,99.3,79z"/>
		<path class="st0" d="M132.5,76.2h3v22.5h-3.2V81.2l-6.9,8.7h-0.6l-7-8.7v17.5h-3.2V76.2h3.1l7.5,9.2L132.5,76.2z"/>
		<path class="st0" d="M147.5,76.1h2.3l10.1,22.6h-3.3l-3-6.7H144l-2.8,6.7h-3.3L147.5,76.1z M152.3,89.2l-3.6-8.2l-3.4,8.2H152.3z"
			/>
		<path class="st0" d="M180.2,76.2h3.1v22.5h-2.8l-15-17.3v17.3h-3V76.2h2.6l15.2,17.5V76.2z"/>
	</g>
	<path class="st0" d="M72,41.9c-18.2,1.3-19.2,2.3-20.5,20.5C50.3,44.2,49.2,43.1,31,41.9c18.2-1.3,19.2-2.3,20.5-20.5
		C52.8,39.6,53.8,40.6,72,41.9z"/>
</g>
</svg>
