<?xml version="1.0" encoding="utf-8"?>
<!-- Generator: Adobe Illustrator 18.1.1, SVG Export Plug-In . SVG Version: 6.00 Build 0)  -->
<svg version="1.1" id="レイヤー_1" xmlns="http://www.w3.org/2000/svg" xmlns:xlink="http://www.w3.org/1999/xlink" x="0px"
	 y="0px" viewBox="0 94.5 841.9 406.2" enable-background="new 0 94.5 841.9 406.2" xml:space="preserve">
<g id="レイヤー_1_1_" display="none">
	<rect x="-976.4" y="-25.1" display="inline" width="2789.6" height="653.8"/>
</g>
<g id="moyou" display="none">
	<g display="inline">
		<circle fill="#262626" cx="-752.3" cy="198.5" r="12.2"/>
		<circle fill="#262626" cx="-276.6" cy="86.5" r="12.2"/>
		<circle fill="#262626" cx="-102.4" cy="95.2" r="12.2"/>
		<circle fill="#262626" cx="202.5" cy="118.1" r="30.5"/>
		<circle fill="#262626" cx="353.9" cy="410.3" r="12.2"/>
		<circle fill="#262626" cx="-98.7" cy="363.5" r="12.2"/>
		<circle fill="#262626" cx="807.9" cy="489.2" r="12.2"/>
		<circle fill="#262626" cx="663.4" cy="176.9" r="12.2"/>
		<circle fill="#262626" cx="-844.3" cy="426.9" r="12.2"/>
		<circle fill="#262626" cx="-484" cy="434.1" r="12.2"/>
		<circle fill="#262626" cx="-610.7" cy="540.4" r="12.2"/>
		<circle fill="#262626" cx="-155.2" cy="480.5" r="12.2"/>
		<g>
			<g>
				<circle fill="none" stroke="#262626" stroke-width="3" stroke-miterlimit="10" cx="-834" cy="190.6" r="35.7"/>
				<circle fill="none" stroke="#262626" stroke-width="3" stroke-miterlimit="10" cx="-833.4" cy="190.6" r="15.3"/>
			</g>
			<g>
				<circle fill="none" stroke="#262626" stroke-width="3" stroke-miterlimit="10" cx="474.9" cy="384.4" r="35.7"/>
				<circle fill="none" stroke="#262626" stroke-width="3" stroke-miterlimit="10" cx="475.3" cy="384.4" r="15.3"/>
			</g>
			<g>
				<circle fill="none" stroke="#262626" stroke-width="3" stroke-miterlimit="10" cx="466.2" cy="37.4" r="35.7"/>
				<circle fill="none" stroke="#262626" stroke-width="3" stroke-miterlimit="10" cx="466.6" cy="37.4" r="15.3"/>
			</g>
			<g>
				<circle fill="none" stroke="#262626" stroke-width="3" stroke-miterlimit="10" cx="748.2" cy="73.6" r="35.7"/>
				<circle fill="none" stroke="#262626" stroke-width="3" stroke-miterlimit="10" cx="748.6" cy="73.6" r="15.3"/>
			</g>
			<g>
				<circle fill="none" stroke="#262626" stroke-width="3" stroke-miterlimit="10" cx="-3.9" cy="384.4" r="35.7"/>
				<circle fill="none" stroke="#262626" stroke-width="3" stroke-miterlimit="10" cx="-3.3" cy="384.4" r="15.3"/>
			</g>
			<g>
				<ellipse fill="none" stroke="#262626" stroke-width="3" stroke-miterlimit="10" cx="87.2" cy="523.2" rx="90.7" ry="88.5"/>
				<ellipse fill="none" stroke="#262626" stroke-width="3" stroke-miterlimit="10" cx="88.7" cy="523.2" rx="38.8" ry="37.9"/>
			</g>
			<circle fill="none" stroke="#262626" stroke-width="3" stroke-miterlimit="10" cx="-695.7" cy="372.6" r="70"/>
			<circle fill="none" stroke="#262626" stroke-width="3" stroke-miterlimit="10" cx="280.5" cy="538.9" r="70"/>
			<circle fill="none" stroke="#262626" stroke-width="3" stroke-miterlimit="10" cx="-464.6" cy="530" r="31.2"/>
			<circle fill="none" stroke="#262626" stroke-width="3" stroke-miterlimit="10" cx="-349.8" cy="330.5" r="31.2"/>
			<circle fill="none" stroke="#262626" stroke-width="3" stroke-miterlimit="10" cx="-349.8" cy="417.3" r="31.2"/>
			<circle fill="none" stroke="#262626" stroke-width="3" stroke-miterlimit="10" cx="620.5" cy="441.7" r="31.2"/>
			<circle fill="none" stroke="#262626" stroke-width="3" stroke-miterlimit="10" cx="620.5" cy="528.7" r="31.2"/>
			<circle fill="none" stroke="#262626" stroke-width="3" stroke-miterlimit="10" cx="-942.1" cy="572.5" r="28.5"/>
			<circle fill="none" stroke="#262626" stroke-width="3" stroke-miterlimit="10" cx="-862.6" cy="572.5" r="28.5"/>
			<circle fill="none" stroke="#262626" stroke-width="3" stroke-miterlimit="10" cx="-515.4" cy="591.4" r="31.2"/>
			<circle fill="none" stroke="#262626" stroke-width="3" stroke-miterlimit="10" cx="441.1" cy="543.3" r="70"/>
			<circle fill="none" stroke="#262626" stroke-width="3" stroke-miterlimit="10" cx="748.2" cy="279.1" r="37"/>
			<circle fill="none" stroke="#262626" stroke-width="3" stroke-miterlimit="10" cx="748.2" cy="176.5" r="37"/>
			<circle fill="none" stroke="#262626" stroke-width="3" stroke-miterlimit="10" cx="-190.9" cy="304.6" r="70"/>
			<polyline fill="none" stroke="#262626" stroke-width="3" stroke-miterlimit="10" points="-974.2,84.9 -835.8,84.9 -835.8,155.8 
							"/>
			<polyline fill="none" stroke="#262626" stroke-width="3" stroke-miterlimit="10" points="-974.2,272.4 -286.6,272.4 
				-286.6,451.1 -114.4,451.1 -114.4,630.9 			"/>
			<polyline fill="none" stroke="#262626" stroke-width="3" stroke-miterlimit="10" points="55.6,-25.1 55.6,344.3 410.8,344.3 
				410.8,30.4 116.6,30.4 116.6,246.2 360.7,246.2 360.7,113.3 220.1,113.3 			"/>
			<polyline fill="none" stroke="#262626" stroke-width="3" stroke-miterlimit="10" points="796.6,-25.1 796.6,359.5 532.9,359.5 
				532.9,630.9 			"/>
			<polyline fill="none" stroke="#262626" stroke-width="3" stroke-miterlimit="10" points="-559,630.9 -559,488.1 -423.9,488.1 
				-423.9,630.9 			"/>
			<polyline fill="none" stroke="#262626" stroke-width="3" stroke-miterlimit="10" points="-585.2,-22.9 -585.2,150.3 -99.2,150.3 
				-99.2,362.8 			"/>
			<polyline fill="none" stroke="#262626" stroke-width="3" stroke-miterlimit="10" points="-974.2,407.5 -892.5,407.5 
				-892.5,490.3 -794.4,490.3 -794.4,540.4 -618.9,540.4 			"/>
			<polyline fill="none" stroke="#262626" stroke-width="3" stroke-miterlimit="10" points="-223.4,-25.1 -223.4,122 -151.5,122 
				-151.5,34.8 -101.3,34.8 -101.3,90.4 			"/>
			<polyline fill="none" stroke="#262626" stroke-width="3" stroke-miterlimit="10" points="-282.2,630.9 -282.2,490.3 
				-225.6,490.3 -225.6,566.6 -155.8,566.6 -155.8,487 			"/>
			<polyline fill="none" stroke="#262626" stroke-width="3" stroke-miterlimit="10" points="819.4,490.3 748.6,490.3 748.6,453.2 
				855.4,453.2 855.4,527.3 707.2,527.3 707.2,400.9 977.4,400.9 977.4,630.9 			"/>
			<polyline fill="none" stroke="#262626" stroke-width="3" stroke-miterlimit="10" points="694.1,-22.9 694.1,257.1 532.9,257.1 
				532.9,45.7 663.6,45.7 663.6,173.2 			"/>
			<polyline fill="none" stroke="#262626" stroke-width="3" stroke-miterlimit="10" points="-627.7,374.8 -484.9,374.8 -484.9,426 
							"/>
			<polyline fill="none" stroke="#262626" stroke-width="3" stroke-miterlimit="10" points="118.8,343.2 118.8,409.7 350.9,409.7 
							"/>
			<polyline fill="none" stroke="#262626" stroke-width="3" stroke-miterlimit="10" points="-974.2,518.6 -820.5,518.6 
				-820.5,628.7 			"/>
			<polyline fill="none" stroke="#262626" stroke-width="3" stroke-miterlimit="10" points="-974.2,307.2 -844.5,307.2 
				-844.5,419.5 			"/>
			<line fill="none" stroke="#262626" stroke-width="3" stroke-miterlimit="10" x1="-753" y1="-25.1" x2="-753" y2="190.6"/>
			<polyline fill="none" stroke="#262626" stroke-width="3" stroke-miterlimit="10" points="-515.4,-22.9 -515.4,87.1 -283.3,87.1 
							"/>
			<polyline fill="none" stroke="#262626" stroke-width="3" stroke-miterlimit="10" points="-953.5,-25.1 -953.5,61 -840.1,61 
				-840.1,-22.9 			"/>
			<line fill="none" stroke="#262626" stroke-width="3" stroke-miterlimit="10" x1="-5.4" y1="-22.9" x2="-5.4" y2="347.5"/>
			<path fill="#262626" d="M-547,293.1v63.2h61v-63.2H-547z M-515.6,344.1l-19.4-19.4l19.4-19.4l19.4,19.4L-515.6,344.1z"/>
			<path fill="#262626" d="M1187.8,11.9v139.5h137.3V11.9H1187.8z M1256.2,125.3l-43.4-43.4l43.4-43.4l43.4,43.4L1256.2,125.3z"/>
			<rect x="-719.8" y="44.8" fill="none" stroke="#262626" stroke-width="3" stroke-miterlimit="10" width="102.4" height="102.4"/>
			<rect x="359.4" y="266.7" fill="none" stroke="#262626" stroke-width="3" stroke-miterlimit="10" width="27" height="27"/>
			<rect x="-588" y="164.9" fill="none" stroke="#262626" stroke-width="3" stroke-miterlimit="10" width="49.7" height="49.7"/>
			<rect x="-521.1" y="164.9" fill="none" stroke="#262626" stroke-width="3" stroke-miterlimit="10" width="49.7" height="49.7"/>
			<circle fill="#262626" cx="-695.7" cy="122" r="9.4"/>
			<circle fill="#262626" cx="-668.6" cy="122" r="9.4"/>
			<circle fill="#262626" cx="-639.4" cy="122" r="9.4"/>
			<line fill="none" stroke="#262626" stroke-width="3" stroke-miterlimit="10" x1="55.6" y1="279.1" x2="359.4" y2="280.2"/>
			<rect x="233" y="303.3" fill="none" stroke="#262626" stroke-width="3" stroke-miterlimit="10" width="27" height="27"/>
			<line fill="none" stroke="#262626" stroke-width="3" stroke-miterlimit="10" x1="55.6" y1="316.2" x2="233" y2="317.3"/>
			<rect x="828.8" y="233.3" fill="none" stroke="#262626" stroke-width="3" stroke-miterlimit="10" width="147.3" height="147.3"/>
			<rect x="842.5" y="172.8" fill="none" stroke="#262626" stroke-width="3" stroke-miterlimit="10" width="34.2" height="34.2"/>
			<rect x="914.5" y="172.8" fill="none" stroke="#262626" stroke-width="3" stroke-miterlimit="10" width="34.2" height="34.2"/>
			<rect x="1375.8" y="16.5" fill="none" stroke="#262626" stroke-width="3" stroke-miterlimit="10" width="52.5" height="52.5"/>
			<rect x="1457.8" y="98.9" fill="none" stroke="#262626" stroke-width="3" stroke-miterlimit="10" width="52.5" height="52.5"/>
			<rect x="1375.8" y="98" fill="none" stroke="#262626" stroke-width="3" stroke-miterlimit="10" width="52.5" height="52.5"/>
			<rect x="1457.8" y="16.5" fill="none" stroke="#262626" stroke-width="3" stroke-miterlimit="10" width="52.5" height="52.5"/>
			<rect x="1020.2" y="292.4" fill="none" stroke="#262626" stroke-width="3" stroke-miterlimit="10" width="56" height="56"/>
			<rect x="1151.6" y="440.2" fill="none" stroke="#262626" stroke-width="3" stroke-miterlimit="10" width="65.4" height="65.4"/>
			<rect x="1058.3" y="172.8" fill="none" stroke="#262626" stroke-width="3" stroke-miterlimit="10" width="34.2" height="34.2"/>
			<rect x="986.4" y="172.8" fill="none" stroke="#262626" stroke-width="3" stroke-miterlimit="10" width="34.2" height="34.2"/>
			
				<rect x="1476.1" y="348.5" transform="matrix(-0.7071 -0.7071 0.7071 -0.7071 2290.4937 1679.8776)" fill="none" stroke="#262626" stroke-width="3" stroke-miterlimit="10" width="34.2" height="34.2"/>
			<path fill="none" stroke="#262626" stroke-width="3" stroke-miterlimit="10" d="M872,297.6h-13.3c-11.8,0-21.1-9.4-21.1-21.1
				v-13.3c0-11.8,9.4-21.1,21.1-21.1H872c11.8,0,21.1,9.4,21.1,21.1v13.3C893.1,288.1,883.5,297.6,872,297.6z"/>
			<path fill="none" stroke="#262626" stroke-width="3" stroke-miterlimit="10" d="M946.5,297.6h-13.3c-11.8,0-21.1-9.4-21.1-21.1
				v-13.3c0-11.8,9.4-21.1,21.1-21.1h13.3c11.8,0,21.1,9.4,21.1,21.1v13.3C967.6,288.1,958.1,297.6,946.5,297.6z"/>
			<path fill="none" stroke="#262626" stroke-width="3" stroke-miterlimit="10" d="M946.5,371.1h-13.3c-11.8,0-21.1-9.4-21.1-21.1
				v-13.3c0-11.8,9.4-21.1,21.1-21.1h13.3c11.8,0,21.1,9.4,21.1,21.1v13.3C967.6,361.5,958.1,371.1,946.5,371.1z"/>
			<path fill="none" stroke="#262626" stroke-width="3" stroke-miterlimit="10" d="M872,371.5h-13.3c-11.8,0-21.1-9.4-21.1-21.1
				v-13.3c0-11.8,9.4-21.1,21.1-21.1H872c11.8,0,21.1,9.4,21.1,21.1v13.3C893.1,361.9,883.5,371.5,872,371.5z"/>
			<rect x="828.8" y="-7.9" fill="none" stroke="#262626" stroke-width="3" stroke-miterlimit="10" width="290.3" height="27.5"/>
			<line fill="none" stroke="#262626" stroke-width="3" stroke-miterlimit="10" x1="859.8" y1="20.6" x2="859.8" y2="175.4"/>
			<line fill="none" stroke="#262626" stroke-width="3" stroke-miterlimit="10" x1="931.7" y1="20.6" x2="931.7" y2="175.4"/>
			<line fill="none" stroke="#262626" stroke-width="3" stroke-miterlimit="10" x1="1003.6" y1="20.6" x2="1003.6" y2="175.4"/>
			<line fill="none" stroke="#262626" stroke-width="3" stroke-miterlimit="10" x1="1075.5" y1="20.6" x2="1075.5" y2="175.4"/>
			<rect x="1568.3" y="-1.8" fill="none" stroke="#262626" stroke-width="3" stroke-miterlimit="10" width="34.2" height="34.2"/>
			<line fill="none" stroke="#262626" stroke-width="3" stroke-miterlimit="10" x1="1813.2" y1="15.2" x2="1601.8" y2="15.2"/>
			<rect x="1568.3" y="52.7" fill="none" stroke="#262626" stroke-width="3" stroke-miterlimit="10" width="34.2" height="34.2"/>
			<line fill="none" stroke="#262626" stroke-width="3" stroke-miterlimit="10" x1="1813.2" y1="69.7" x2="1601.8" y2="69.7"/>
			<rect x="1568.3" y="109.3" fill="none" stroke="#262626" stroke-width="3" stroke-miterlimit="10" width="34.2" height="34.2"/>
			<line fill="none" stroke="#262626" stroke-width="3" stroke-miterlimit="10" x1="1813.2" y1="126.3" x2="1601.8" y2="126.3"/>
			<rect x="1568.3" y="163.8" fill="none" stroke="#262626" stroke-width="3" stroke-miterlimit="10" width="34.2" height="34.2"/>
			<line fill="none" stroke="#262626" stroke-width="3" stroke-miterlimit="10" x1="1813.2" y1="180.8" x2="1601.8" y2="180.8"/>
			<rect x="1568.3" y="224.8" fill="none" stroke="#262626" stroke-width="3" stroke-miterlimit="10" width="34.2" height="34.2"/>
			<line fill="none" stroke="#262626" stroke-width="3" stroke-miterlimit="10" x1="1813.2" y1="241.8" x2="1601.8" y2="241.8"/>
			<path fill="#262626" d="M1048.3,418.2c-18.5,0-33.3,15-33.3,33.3c0,18.5,15,33.3,33.3,33.3s33.3-15,33.3-33.3
				C1081.6,433.2,1066.8,418.2,1048.3,418.2z M1048.3,463.1c-6.3,0-11.3-5-11.3-11.3c0-6.3,5-11.3,11.3-11.3s11.3,5,11.3,11.3
				C1059.6,457.8,1054.6,463.1,1048.3,463.1z"/>
			<circle fill="none" stroke="#262626" stroke-width="3" stroke-miterlimit="10" cx="1048.3" cy="580.3" r="26.8"/>
			<circle fill="none" stroke="#262626" stroke-width="3" stroke-miterlimit="10" cx="1166.4" cy="580.3" r="26.8"/>
			<path fill="none" stroke="#262626" stroke-width="3" stroke-miterlimit="10" d="M1239,628.7v-97h-111.1V407.5h373.8
				c0,0,42.5,3.9,42.5-42.3s-46.4-44.9-46.4-44.9h-423.2"/>
			<rect x="1295.2" y="451.5" fill="none" stroke="#262626" stroke-width="3" stroke-miterlimit="10" width="460.1" height="102"/>
			<circle fill="none" stroke="#262626" stroke-width="3" stroke-miterlimit="10" cx="1365.8" cy="501.8" r="34.9"/>
			<circle fill="none" stroke="#262626" stroke-width="3" stroke-miterlimit="10" cx="1469.5" cy="501.8" r="34.9"/>
			<circle fill="none" stroke="#262626" stroke-width="3" stroke-miterlimit="10" cx="1573.5" cy="501.8" r="34.9"/>
			<circle fill="none" stroke="#262626" stroke-width="3" stroke-miterlimit="10" cx="1677.5" cy="501.8" r="34.9"/>
			<polyline fill="none" stroke="#262626" stroke-width="3" stroke-miterlimit="10" points="1151.8,-25.1 1151.8,281.1 
				1585.5,281.1 1585.5,452.2 			"/>
			<polyline fill="none" stroke="#262626" stroke-width="3" stroke-miterlimit="10" points="1150.7,207 1537.5,207 1537.5,116.5 			
				"/>
			<circle fill="#262626" cx="1537.5" cy="109.1" r="11.1"/>
		</g>
	</g>
</g>
<g>
	<path fill="#FFFFFF" d="M31.8,460.9c0.7,0,1.1,0,1.7-0.2l2.4,2.8c-2.2,1.7-2.2,2-3.1,4.1c-3.9,10.5-6.1,16.1-13.5,23.3
		c-4.6,4.4-8.5,6.5-10.2,7.4l-3.7-3.1c3.5-1.5,11.6-5.4,17.9-15.5c3.7-5.9,4.8-10.7,6.1-15.5H15c-4.1,7.6-10.7,12.9-11.8,13.7
		L0,475.7c1.7-1.3,10-7.4,13.1-16.6l3.5,1.7L31.8,460.9L31.8,460.9z"/>
	<path fill="#FFFFFF" d="M59.5,460.7c0.4,0,1.1,0.2,1.1,0.4c0,0.2,0,0.4-0.9,1.1v20.9h-4.1v-22.9L59.5,460.7z M61.5,495.7
		c5.7-2,9.6-5,12-8.7c2.4-3.7,2.8-7.8,2.8-16.3c0-2,0-4.4-0.2-12l4.1,0.2c0.9,0,1.1,0.2,1.1,0.7c0,0.2,0,0.4-0.9,1.3
		c0,12,0,15-0.7,20.1c-1.3,8.5-5.4,13.5-15.3,18.1L61.5,495.7z"/>
	<path fill="#FFFFFF" d="M136,493.1H99.2v-3.7h16.3V467h-13.1v-3.5h29.9v3.5h-12.9v22.4h16.3v3.7H136z"/>
	<path fill="#FFFFFF" d="M166.7,497.9v-24.4c-5.9,4.1-9.4,6.1-13.7,8.1l-3.7-3.3c11.8-3.1,23.8-13.9,29.4-20.7l3.5,2.8
		c0.2,0,0.7,0.4,0.7,0.9c0,0.2,0,0.4-0.7,0.4c-0.4,0-0.7,0-1.1-0.2c-4.1,3.9-5.7,5.4-10.2,8.9v27.5H166.7z"/>
	<path fill="#FFFFFF" d="M202.2,494.9c1.7-0.4,5.7-1.5,10.5-4.4c3.5-2.2,6.5-5,8.9-8.1c-5.2-3.5-12.6-7-13.3-7.4
		c-2.4,2.4-3.1,2.8-5,4.6l-3.5-2.6c7.4-5,11.8-11.1,14.6-17.7l4.4,2h11.6c0.9,0,2.4-0.2,3.3-0.7l2.4,3.5c-0.9,0.7-1.1,0.9-1.3,1.3
		c-4.4,10.7-6.1,13.5-7.4,15.7c-7.6,12-15.9,15.5-22.2,17.4L202.2,494.9z M216.4,464.4c-1.5,2.8-3.5,5.4-5.7,8.1
		c1.3,0.7,3.9,2,4.1,2c3.3,1.5,6.3,3.3,8.9,5c3.7-5.9,5.7-11.3,6.8-15H216.4z"/>
	<path fill="#FFFFFF" d="M250,480.9v-3.7h36.2v3.7H250z"/>
	<path fill="#FFFFFF" d="M306.9,460.7c-0.9,2.4-1.7,4.6-2.6,10c-0.7,3.3-0.9,6.5-0.9,10c0,2.8,0.2,5,0.7,7.2
		c0.2,1.5,0.2,1.7,0.4,2.6c0.7-1.5,1.1-2.6,2.6-7.4l2.8,2.2c-0.7,1.7-2,4.6-3.3,11.6l-3.1,0.4c-2.2-5.2-3.3-9.4-3.3-15.9
		c0-5,0.7-10.2,1.3-13.7c0.2-1.3,1.5-7,1.7-8.3L306.9,460.7z M317.3,483.3c0.2,4.8,0.4,7.4,7.6,7.4c5.9,0,9.2-0.9,12.4-2v3.9
		c-2,0.4-5.2,1.3-12.6,1.3c-6.8,0-10.7-0.7-10.7-10L317.3,483.3z M335.4,465.7c-1.3-0.2-3.5-0.4-6.3-0.4c-6.3,0-10.7,1.3-12.6,2
		l-0.2-3.7c7-1.3,11.6-1.3,14.4-1.3c2.2,0,3.3,0,4.8,0.2V465.7z"/>
	<path fill="#FFFFFF" d="M347.6,456.7h18.7v13.9h-15.3v30.1h-3.7v-44H347.6z M362.9,459.3h-11.6v3.1h11.6V459.3z M362.9,464.8h-11.6
		v3.1h11.6V464.8z M360.2,476.6h-5v-2.8h24.6v2.8h-3.7V499h-3.3v-6.8c-4.4,0.7-11.8,2.2-16.8,3.3c-0.4,0.4-0.7,1.1-0.9,1.1
		c0,0-0.4,0-0.7-0.9l-1.3-3.3c1.1,0,1.7,0,6.8-0.7v-15.3H360.2z M372.9,476.6h-9.6v2.8h9.6V476.6z M372.9,481.8h-9.6v2.8h9.6V481.8z
		 M363.5,490.9c2.8-0.4,5.9-0.9,9.6-1.7V487h-9.6V490.9z M379.6,496.8c1.7,0,2.4,0,3.1,0c2.4,0,2.6-0.2,2.6-1.7v-24.6h-15.5v-13.9
		h19v39c0,3.7-0.7,5.2-7.4,5L379.6,496.8z M385.3,459.3h-11.8v3.1h11.8V459.3z M385.3,464.8h-11.8v3.1h11.8V464.8z"/>
	<path fill="#FFFFFF" d="M404.3,466.5c-0.4,1.5-0.9,4.1-0.9,8.5c0,12.6,4.6,16.8,6.3,16.8c0.7,0,1.3-0.4,2.2-2.6
		c1.1-2.4,1.7-4.8,2.2-6.3l3.1,2.8c-1.7,4.8-3.9,10.2-7.4,10.2c-3.9,0-7-6.1-7.8-8.5c-1.3-3.7-2-8.9-2-14.4c0-1.3,0.2-7,0.2-8.1
		L404.3,466.5z M430.2,465.2c4.8,5.9,7.4,12.6,8.9,20.1l-3.9,1.3c-1.7-10.7-5.9-16.8-8.3-20.1L430.2,465.2z"/>
	<path fill="#FFFFFF" d="M467.9,458.7c-0.7,2.6-0.9,3.5-2.2,8.3c4.4-0.9,6.8-1.7,8.5-2.4v3.7c-3.5,1.3-7.2,2-9.6,2.4
		c-2.8,8.9-5.9,17.9-10.9,25.9l-4.1-1.1c2.4-3.5,6.3-9.4,11.3-24.4c-2.8,0.2-5,0.4-8.3,0.2l-0.4-3.7c0.9,0.2,1.5,0.2,3.5,0.2
		c2.4,0,4.1-0.2,6.1-0.4c0.7-2.4,1.7-6.8,2-10.5L467.9,458.7z M470.1,487.7c-0.2,0.7-0.7,1.5-0.7,2.6c0,2.2,1.5,3.9,7.4,3.9
		c3.3,0,6.5-0.7,9.8-1.5l-0.4,3.9c-4.6,0.9-8.7,0.9-9.2,0.9c-5.2,0-10.9-1.1-10.9-6.8c0-2,0.7-3.5,0.9-4.4L470.1,487.7z M471.8,474
		c2.2-0.2,5.9-0.7,8.1-0.7c2.4,0,4.8,0.2,7,0.9l-0.2,3.5c-3.1-0.7-4.8-0.9-8.3-0.9c-3.9,0-5.2,0.4-6.5,0.7L471.8,474z"/>
	<path fill="#FFFFFF" d="M527.2,497.1h-4.4V472h-8.5v-3.5c5.9-0.2,8.7-1.3,9.6-7.2h3.1v35.7H527.2z"/>
	<path fill="#FFFFFF" d="M578.2,479.2c0,9.2-3.3,18.3-15.7,18.3s-15.7-9.2-15.7-18.3c0-9.4,3.3-18.3,15.7-18.3
		C575.1,460.7,578.2,470.2,578.2,479.2z M551.4,479.2c0,8.1,2.8,14.2,11.3,14.2c8.3,0,11.3-5.7,11.3-14.2c0-8.3-3.1-14.2-11.3-14.2
		C554,465,551.4,471.1,551.4,479.2z"/>
	<path fill="#FFFFFF" d="M605.4,475.5h-1.7V472h15.9v-7.6H608c-1.1,1.5-2.8,3.9-5.4,6.8l-3.3-2.2c3.5-3.5,7.2-7.8,10-14.2l3.9,1.7
		c0.2,0,0.4,0.2,0.4,0.7c0,0.7-0.7,0.7-1.5,0.9c-0.2,0.4-1.3,2-2,2.8h27.2v3.5h-14.2v7.6h14.8v3.5h-14.8v10H641v3.5h-17.7v11.6h-3.7
		V489h-22.4v-3.5h8.5v-10H605.4z M608.9,485.5h10.5v-10h-10.5V485.5z"/>
	<path fill="#FFFFFF" d="M646.2,482.2c2.2-2,4.4-3.9,7.6-8.1c3.1-3.9,4.4-6.5,5.4-8.7l3.1,2c0.4,0.2,0.7,0.4,0.7,0.9
		c0,0.7-0.4,0.7-1.5,0.9c-0.9,1.3-2.8,4.4-4.4,6.3c0.2,0,0.4,0.4,0.4,0.7s-0.2,0.4-0.7,1.1v23.1h-3.5v-20.1
		c-2.4,2.8-3.5,3.9-4.4,4.8L646.2,482.2z M647.7,465.5c3.1-2,7-5,11.3-10.2l2.6,2.2c0.2,0.2,0.7,0.4,0.7,0.9c0,0.7-0.9,0.4-1.3,0.4
		c-4.6,5-7.8,7.8-10.9,9.8L647.7,465.5z M674.3,478.5c1.1,0.4,1.3,0.7,1.3,0.9c0,0.2-0.2,0.4-1.5,0.7c-0.4,0.7-0.7,0.9-0.9,1.5h12.2
		l1.1,1.5c-1.7,3.7-3.7,7-7,10c4.6,2.2,8.7,3.1,12.2,3.5l-2.4,3.3c-4.6-0.7-8.9-2.2-12.9-4.4c-5.2,3.5-9.6,4.6-12.6,5.2l-2.2-3.3
		c4.4-0.7,7.8-1.5,11.8-4.1c-0.9-0.9-3.5-2.8-5.2-5.7c-1.5,1.5-2.2,2.2-3.9,3.5l-3.1-2.2c4.8-3.5,8.3-7.6,10.2-10.9
		c-5.7,0.4-6.3,0.7-7.6,0.9l-0.9-3.1c0.9-0.2,1.3-0.4,2.2-1.1c2.4-1.5,5.2-3.7,6.3-4.6c-1.3-1.7-3.7-3.9-6.1-5.9
		c4.4-3.1,7.4-6.5,9.6-8.9l2.8,2.6c0.2,0.2,0.4,0.4,0.4,0.7c0,0.7-0.7,0.4-1.3,0.4c-2,2-2.6,2.4-6.1,5.4c1.3,1.3,1.7,1.7,3.5,3.7
		c3.1-2.6,7-5.9,9.2-8.3l3.1,2.6c0.7,0.4,0.7,0.7,0.7,0.9c0,0.7-0.9,0.7-2,0.4c-0.9,0.7-5.2,4.1-6.1,4.8c-4.4,3.5-7.6,5.7-9.8,7
		c3.9-0.2,9.2-0.7,14.6-1.5c-1.5-2-2.2-2.6-2.8-3.3l2.8-2.2c3.1,3.3,5.2,6.3,7.4,10l-3.1,1.7c-1.3-2.2-1.7-3.1-2.4-3.9
		c-5.2,0.7-5.9,0.7-13.1,1.3h-0.2L674.3,478.5z M671,484.4c-0.4,0.4-0.4,0.4-0.7,0.9c1.7,2.6,3.3,4.4,5.9,6.1
		c2.8-2.4,4.1-4.4,5.4-6.8H671V484.4z"/>
	<path fill="#FFFFFF" d="M722.2,493.8c1.5-0.4,4.8-1.5,7.6-3.9c3.7-3.1,5.9-7.8,5.9-12.4c0-7.4-5.2-12-8.9-13.3
		c-2.2-0.9-3.9-0.9-5.7-1.1c-1.1,7.8-3.1,15.5-6.5,22.4c-3.1,6.1-5,8.7-7.2,8.7c-4.8,0-8.7-7.8-8.7-14.4c0-7.8,6.3-20.3,21.4-20.3
		c10.2,0,19.4,6.5,19.4,17.7c0,6.1-2.8,11.6-7.4,15.5c-3.1,2.4-6.1,3.7-7.6,4.1L722.2,493.8z M709.8,466.3
		c-3.3,2.4-7.4,7.8-7.4,13.7c0,5.4,3.5,9.2,5.2,9.2c2.2,0,4.8-6.1,5.9-8.9c2.2-5.4,3.5-11.1,3.9-17
		C715.5,463.5,712.7,464.1,709.8,466.3z"/>
	<path fill="#FFFFFF" d="M746.9,478.1v-3.5h20.3v-8.1h-16.8v-3.3h16.8v-7.6h3.7c0.7,0,1.1,0,1.1,0.4c0,0.7-0.9,0.9-1.3,1.1v5.9h17.4
		v3.3h-17.4v8.1h20.7v3.5h-19.4c3.7,5.2,8.3,10.5,19.2,15.7l-2.4,3.3c-7.6-4.4-12-8.1-17.9-15.3v18.7h-3.5v-18.7
		c-6.5,9.2-12,13.1-16.6,15.7l-2.8-2.8c3.5-2,10.7-5.4,17.9-16.3L746.9,478.1L746.9,478.1z"/>
	<path fill="#FFFFFF" d="M825.1,476.8c2.8-5,3.9-8.1,4.8-10.7l3.7,1.7c0.2,0.2,0.7,0.4,0.7,0.9c0,0.2,0,0.7-1.5,0.9
		c-2,4.4-2.6,5.7-4.1,8.5h13.3v3.5h-18.7c5.4,7.4,13.5,11.3,18.1,13.3l-2.6,3.3c-6.8-3.3-13.1-7.6-17.4-13.9v16.3h-3.7v-16.3
		c-3.5,5-10.2,10.7-17.2,14.2l-2.6-3.1c7-2.8,13.3-7.4,17.7-13.7h-17.9v-3.5h20.1v-13.5h-16.6v-3.5h16.6v-6.3l3.7,0.4
		c0.2,0,0.9,0.2,0.9,0.7c0,0.2-0.2,0.4-0.9,0.9v4.4H838v3.5h-16.8v13.5h6.5L825.1,476.8z M807.7,466.5c2.2,2.6,4.1,6.3,5,8.1l-3.3,2
		c-1.5-2.8-3.1-5.7-5-8.1L807.7,466.5z"/>
</g>
<g id="rogo">
	<path fill="#FFFFFF" d="M521.5,137.5L557,94.5L514.3,130c-1.3,1.1-2.6,2.4-3.9,3.5l-64.1,64.1c-15.5,15.5-40.3,15.5-55.8,0
		l-62.8-62.8c-0.9-0.9-4.8-4.4-5.9-5.2l-42.3-35.1l34.9,42.1c0.9,1.1,3.9,4.4,4.8,5.4l63.4,63.4c15.5,15.5,15.5,40.3,0,55.8
		l-51.4,51.2c-1.7,2-13.1,13.3-15.9,16.3c-0.4,0.4-0.9,1.1-1.3,1.5l-34.2,41.4l41.4-34.4c0.9-0.7,1.7-1.5,2.6-2.4
		c3.5-3.5,13.3-13.1,15-14.6l51.7-51.4c15.5-15.5,40.3-15.5,55.8,0l63.9,63.9c1.3,1.3,3.3,3.1,4.6,4.1l42.3,34.9l-34.7-41.8
		c-1.3-1.5-3.5-4.1-5-5.4L454,261c-15.5-15.5-15.5-40.3,0-55.8l64.1-64.1C519.3,140.1,520.4,138.8,521.5,137.5z"/>
</g>
</svg>
